# Blender v2.93.5 OBJ File: 'circle.blend'
# www.blender.org
mtllib sball.mtl
o Sphere
v -0.006817 0.241710 -0.444413
v -0.044794 0.045182 -0.500259
v -0.080771 -0.323378 -0.381289
v 0.030006 -0.420387 -0.274994
v 0.055540 0.324816 -0.380006
v 0.015491 0.446443 -0.236801
v 0.146083 0.049526 -0.480586
v 0.135841 -0.142483 -0.464118
v 0.211297 0.230937 -0.395310
v 0.134426 -0.323106 -0.364492
v 0.079469 0.483722 -0.114305
v 0.303477 0.063295 -0.396712
v 0.285987 -0.234488 -0.343265
v 0.191584 0.391891 -0.256910
v 0.368973 -0.059096 -0.344042
v 0.261751 -0.370775 -0.226827
v 0.080562 -0.481024 -0.122877
v 0.368509 0.246574 -0.246230
v 0.423982 -0.230169 -0.153308
v 0.219972 0.451367 -0.046812
v 0.324514 0.356402 -0.143976
v 0.455153 0.107894 -0.194720
v 0.481908 -0.045180 -0.141530
v 0.302382 -0.390575 -0.097951
v 0.442396 0.237717 -0.045017
v 0.313433 0.392844 0.045863
v 0.490193 0.098570 0.047782
v 0.492602 -0.113062 0.042949
v 0.388507 -0.319333 0.029594
v 0.428364 0.234163 0.124680
v 0.464855 0.049025 0.192170
v 0.420322 -0.050082 0.281951
v 0.391502 -0.237491 0.209262
v 0.295851 -0.394564 0.112295
v 0.309895 0.328266 0.226954
v 0.344092 0.173599 0.327031
v 0.196919 0.036683 0.467925
v 0.306948 -0.146567 0.372665
v 0.142297 -0.485025 0.002617
v 0.171759 0.421007 0.217047
v 0.229824 -0.311370 0.325269
v 0.153216 -0.446766 0.180413
v 0.148126 0.146459 0.459487
v 0.140970 -0.146567 0.461762
v 0.107178 0.468245 0.158376
v 0.128573 0.330962 0.362803
v 0.077314 -0.323614 0.380506
v -0.042155 0.237716 0.442678
v -0.057536 0.049487 0.498931
v -0.039659 -0.098360 0.490753
v -0.100287 -0.220434 0.444199
v -0.060578 -0.356402 0.349812
v -0.027078 -0.444186 0.238876
v -0.002359 -0.499860 0.056987
v -0.082481 0.396208 0.306301
v -0.205854 0.234163 0.395810
v -0.244089 0.049488 0.438934
v -0.218254 -0.195032 0.417701
v -0.130998 0.452452 0.180553
v -0.295642 0.319333 0.253789
v -0.372665 0.146567 0.306948
v -0.388463 -0.049527 0.318433
v -0.349045 -0.237570 0.275553
v -0.225056 -0.389641 0.229151
v 0.055902 0.499607 0.025723
v -0.041633 0.492298 0.092330
v -0.128852 -0.483407 0.068844
v -0.370258 0.319333 0.121334
v -0.474176 0.111036 0.146229
v -0.461762 -0.146567 0.140970
v -0.357715 -0.327491 0.133606
v -0.500569 0.049488 0.040906
v -0.444457 0.234163 -0.038714
v -0.404106 -0.302294 0.005217
v -0.278621 -0.419043 0.019535
v -0.084130 0.492146 -0.056214
v -0.229414 0.450441 0.036663
v -0.401377 0.232028 -0.198546
v -0.471452 0.098570 -0.142496
v -0.482649 -0.063296 -0.128562
v -0.477400 -0.154618 -0.085734
v -0.307173 0.395623 -0.074003
v -0.312716 0.239775 -0.317529
v -0.432909 -0.041186 -0.254795
v -0.296258 -0.387423 -0.129000
v -0.381034 0.098570 -0.312066
v -0.367471 -0.241130 -0.250733
v -0.257202 0.356402 -0.244714
v -0.312113 -0.049488 -0.393482
v -0.253789 -0.319333 -0.295641
v -0.149325 -0.417028 -0.235983
v -0.167365 -0.466711 -0.089458
v -0.135822 0.445901 -0.192741
v -0.211699 -0.112001 -0.448610
v -0.158531 0.324517 -0.353799
v -0.190274 0.150701 -0.444762
v -0.048177 -0.146567 -0.480391
v -0.035330 -0.482763 -0.141146
vt 0.753117 0.659838
vt 0.702959 0.533746
vt 0.764946 0.529345
vt 0.734375 0.000000
vt 0.800271 0.093613
vt 0.655721 0.092502
vt 0.704058 0.408146
vt 0.765866 0.406655
vt 0.693202 0.278610
vt 0.782504 0.279223
vt 0.728769 0.723086
vt 0.671592 0.653018
vt 0.732751 0.187500
vt 0.747177 0.841942
vt 0.643559 0.778383
vt 0.654962 0.912625
vt 0.612937 0.237411
vt 0.647358 0.539514
vt 0.618008 0.459880
vt 0.640008 0.347252
vt 0.594267 0.657713
vt 0.554302 0.352875
vt 0.484640 0.091419
vt 0.564263 0.562500
vt 0.546196 0.470656
vt 0.578125 0.000000
vt 0.566395 0.750000
vt 0.515664 0.655822
vt 0.484536 0.562500
vt 0.487833 0.427673
vt 0.535970 0.854412
vt 0.475441 0.784258
vt 0.486009 0.281545
vt 0.547406 0.217939
vt 0.444960 0.216374
vt 0.453755 0.653989
vt 0.437028 0.531089
vt 0.405466 0.468750
vt 0.478127 0.962469
vt 0.344712 0.875000
vt 0.422044 0.344401
vt 0.365151 0.155337
vt 0.356502 0.812500
vt 0.359637 0.404151
vt 0.304737 0.722004
vt 0.399735 0.722600
vt 0.316098 0.513867
vt 0.296905 0.406575
vt 0.298351 0.593583
vt 0.378985 0.608759
vt 0.281426 0.035238
vt 0.284185 0.280100
vt 0.234179 0.157742
vt 0.211818 0.784026
vt 0.348737 0.293510
vt 0.237182 0.437500
vt 0.215104 0.359415
vt 0.234415 0.655822
vt 0.233032 0.530835
vt 0.182221 0.937500
vt 0.149007 0.855079
vt 0.172620 0.652077
vt 0.170532 0.530835
vt 0.169133 0.376631
vt 0.125169 0.219826
vt 0.222645 0.250000
vt 0.110480 0.717988
vt 0.109616 0.593345
vt 0.109364 0.468871
vt 0.108175 0.344544
vt 0.041542 0.849851
vt 0.048222 0.716763
vt 0.054844 0.275187
vt 0.020431 0.187500
vt 0.055666 0.573133
vt 0.046875 1.000000
vt 0.013014 0.937500
vt 0.046905 0.406575
vt 0.008962 0.281991
vt 0.000000 0.784423
vt 0.000000 0.654220
vt 0.076879 0.092270
vt 0.000000 0.125000
vt 0.014282 0.530835
vt 0.000000 0.406178
vt 1.000000 0.530835
vt 0.960260 0.458604
vt 0.973547 0.389577
vt 0.985428 0.654220
vt 0.953286 0.562500
vt 0.960988 0.784423
vt 0.928492 0.650711
vt 0.913960 0.475094
vt 0.905521 0.344192
vt 0.992921 0.296148
vt 0.903079 0.937500
vt 0.857033 0.842299
vt 0.980279 0.875000
vt 0.878895 0.750000
vt 0.875553 0.655203
vt 0.890786 0.562500
vt 0.921891 0.125000
vt 0.977592 0.062500
vt 0.921875 0.000000
vt 0.931077 0.224568
vt 0.861009 0.281545
vt 0.839716 0.187500
vt 0.858032 0.469165
vt 0.819450 0.427879
vt 0.814567 0.718903
vt 0.812886 0.593459
vt 0.765625 1.000000
vt 0.982751 0.187500
vn 0.0934 0.2554 -0.9623
vn 0.0292 -0.9954 -0.0908
vn 0.0899 -0.1042 -0.9905
vn 0.0681 -0.4973 -0.8649
vn 0.2142 0.4929 -0.8433
vn 0.0754 -0.9174 -0.3907
vn 0.1702 0.7741 -0.6098
vn 0.3172 0.6403 -0.6995
vn 0.2312 0.8906 -0.3918
vn 0.2818 -0.7957 -0.5361
vn 0.4385 0.2484 -0.8637
vn 0.4837 -0.1004 -0.8695
vn 0.4540 -0.6241 -0.6360
vn 0.5230 0.5916 -0.6136
vn 0.7583 -0.3612 -0.5427
vn 0.4071 -0.8844 -0.2284
vn 0.7502 0.2398 -0.6162
vn 0.8737 -0.0162 -0.4861
vn 0.0760 -0.9947 -0.0691
vn 0.7853 0.5601 -0.2637
vn 0.9611 0.2438 -0.1295
vn 0.9985 0.0126 -0.0533
vn 0.6069 0.7863 -0.1155
vn 0.7592 -0.6308 -0.1603
vn 0.6330 -0.7741 0.0050
vn 0.7886 0.6099 0.0780
vn 0.9845 0.0072 0.1752
vn 0.9385 -0.1329 0.3188
vn 0.3206 0.9420 0.0988
vn 0.8991 -0.2715 0.3434
vn 0.8712 -0.4521 0.1914
vn 0.4086 -0.8971 0.1680
vn 0.9260 0.2763 0.2573
vn 0.4383 0.8717 0.2193
vn 0.7463 -0.3373 0.5739
vn 0.4324 0.7042 0.5632
vn 0.4660 -0.1715 0.8680
vn 0.4563 0.4505 0.7674
vn 0.1730 -0.9650 0.1970
vn 0.1709 -0.8088 0.5626
vn 0.1108 0.8302 0.5464
vn 0.3314 -0.4894 0.8066
vn 0.0480 -0.3766 0.9251
vn 0.1493 0.4713 0.8692
vn 0.0507 0.2822 0.9580
vn 0.1384 -0.0755 0.9875
vn -0.0246 0.9202 0.3907
vn -0.2323 0.5998 0.7657
vn -0.2944 0.2747 0.9154
vn -0.3338 -0.0923 0.9381
vn -0.3655 -0.6411 0.6749
vn -0.4001 0.7691 0.4984
vn -0.3950 0.6560 0.6431
vn -0.5941 0.4665 0.6553
vn -0.6762 0.0972 0.7303
vn -0.5807 -0.1311 0.8035
vn -0.6572 -0.2958 0.6932
vn -0.5435 0.7816 0.3062
vn -0.6224 -0.6434 0.4456
vn -0.5538 -0.7934 0.2528
vn -0.7978 0.4464 0.4052
vn -0.2610 0.9511 0.1652
vn -0.0631 0.9979 0.0170
vn -0.8442 -0.4940 0.2081
vn -0.7610 0.6487 0.0076
vn -0.3946 -0.9189 -0.0009
vn -0.9848 -0.1574 0.0735
vn -0.6514 0.7541 0.0841
vn -0.9954 -0.0812 -0.0512
vn -0.9629 0.2562 -0.0843
vn -0.9883 0.0562 -0.1419
vn -0.7667 0.6050 -0.2147
vn -0.9318 0.0334 -0.3613
vn -0.7996 -0.5480 -0.2454
vn -0.3703 0.9134 -0.1692
vn -0.8596 -0.2899 -0.4207
vn -0.6610 0.5978 -0.4536
vn -0.8528 0.2568 -0.4547
vn -0.1467 -0.9868 -0.0684
vn -0.1345 -0.9889 -0.0629
vn -0.4707 -0.7683 -0.4339
vn -0.7537 0.0105 -0.6571
vn -0.6209 -0.6575 -0.4269
vn -0.6094 -0.3528 -0.7100
vn -0.4850 0.6175 -0.6192
vn -0.5983 0.2601 -0.7579
vn -0.2429 -0.9092 -0.3382
vn -0.4564 0.0502 -0.8883
vn -0.0877 0.9531 -0.2896
vn -0.3955 -0.4920 -0.7756
vn -0.3412 0.7732 -0.5346
vn -0.4414 0.4780 -0.7594
vn -0.1417 -0.8003 -0.5826
vn 0.0119 0.9938 -0.1107
vn -0.0816 0.7483 -0.6583
vn 0.1041 -0.0905 -0.9904
vn 0.0878 -0.4816 -0.8720
vn 0.0559 -0.7078 -0.7042
vn 0.2222 0.3482 -0.9107
vn 0.5119 -0.2458 -0.8231
vn 0.3764 -0.4497 -0.8100
vn 0.2739 -0.8586 -0.4333
vn 0.4751 -0.1209 -0.8716
vn 0.6260 0.3500 -0.6969
vn 0.3481 0.8886 -0.2986
vn 0.6875 -0.5385 -0.4872
vn 0.5772 0.6682 -0.4694
vn 0.7744 0.1499 -0.6146
vn 0.3684 -0.8944 -0.2536
vn 0.8551 -0.2384 -0.4605
vn 0.4747 0.8280 -0.2985
vn 0.6991 -0.6400 -0.3187
vn 0.8557 0.4248 -0.2955
vn 0.2542 0.9648 -0.0667
vn 0.9827 0.1241 -0.1372
vn 0.9449 -0.2857 -0.1599
vn 0.8930 -0.4477 -0.0451
vn 0.7413 0.6658 -0.0845
vn 0.5079 -0.8614 -0.0006
vn 0.9238 0.3735 0.0842
vn 0.4116 0.8985 0.1523
vn 0.7402 -0.6165 0.2685
vn 0.7236 0.6455 0.2443
vn 0.7606 0.4628 0.4553
vn 0.8339 0.3266 0.4450
vn 0.5176 0.8027 0.2963
vn 0.6459 -0.4743 0.5982
vn 0.6162 -0.6499 0.4449
vn 0.4874 -0.7515 0.4447
vn 0.8038 0.1583 0.5735
vn 0.5082 0.5443 0.6675
vn 0.6544 0.0713 0.7528
vn 0.6350 -0.0201 0.7722
vn 0.0668 0.9765 0.2050
vn 0.4273 -0.4289 0.7959
vn 0.2708 -0.7705 0.5770
vn 0.5085 0.2884 0.8114
vn 0.0844 -0.9495 0.3021
vn 0.1106 0.8305 0.5459
vn 0.0683 -0.4363 0.8972
vn 0.0449 -0.7768 0.6282
vn 0.1264 0.1318 0.9832
vn 0.1189 -0.0405 0.9921
vn -0.0217 0.9095 0.4151
vn -0.0438 -0.5783 0.8146
vn -0.0014 0.6520 0.7582
vn -0.2600 -0.2287 0.9382
vn -0.2962 -0.6015 0.7419
vn -0.2689 0.2959 0.9166
vn -0.3042 -0.1143 0.9457
vn -0.2640 -0.8932 0.3640
vn -0.0981 -0.9553 0.2791
vn -0.2462 -0.7948 0.5546
vn -0.4941 -0.5960 0.6330
vn -0.5657 0.2968 0.7694
vn -0.5000 0.8004 0.3308
vn -0.7668 0.4748 0.4320
vn -0.4481 -0.8624 0.2355
vn -0.8511 0.0988 0.5157
vn -0.9126 -0.0523 0.4055
vn -0.8209 -0.2849 0.4949
vn -0.8053 -0.4774 0.3516
vn -0.9611 -0.0519 0.2712
vn -0.2358 0.9695 0.0665
vn -0.6838 -0.7220 0.1054
vn -0.8749 0.4560 0.1630
vn -0.9485 0.3120 0.0553
vn -0.9112 -0.4047 0.0772
vn -0.6745 -0.7343 -0.0762
vn -0.4917 -0.8617 -0.1251
vn -0.8968 0.3673 -0.2466
vn -0.7722 -0.5840 -0.2501
vn -0.8896 -0.2348 -0.3917
vn -0.3875 0.9049 -0.1760
vn -0.6738 0.6523 -0.3471
vn -0.8745 0.1335 -0.4663
vn -0.4159 -0.8444 -0.3375
vn -0.7625 0.3478 -0.5455
vn -0.7368 -0.2539 -0.6266
vn -0.4669 0.8222 -0.3256
vn -0.5657 -0.4121 -0.7143
vn -0.5926 0.1584 -0.7897
vn -0.3215 -0.7196 -0.6155
vn -0.2596 -0.4353 -0.8620
vn -0.1710 0.7983 -0.5775
vn -0.2386 0.4841 -0.8418
vn -0.1178 -0.8768 -0.4661
vn -0.3302 0.0407 -0.9430
vn -0.2096 -0.0971 -0.9729
vn -0.1452 0.2963 -0.9440
vn -0.0459 0.9621 -0.2688
vn -0.0930 0.6526 -0.7520
usemtl Material.002
s off
f 1/1/1 7/2/1 2/3/1
f 54/4/2 98/5/2 17/6/2
f 2/3/3 8/7/3 97/8/3
f 97/8/4 10/9/4 3/10/4
f 5/11/5 9/12/5 1/1/5
f 4/13/6 17/6/6 98/5/6
f 6/14/7 14/15/7 5/11/7
f 5/11/8 14/15/8 9/12/8
f 11/16/9 14/15/9 6/14/9
f 10/9/10 16/17/10 4/13/10
f 9/12/11 12/18/11 7/2/11
f 7/2/12 15/19/12 8/7/12
f 10/9/13 13/20/13 16/17/13
f 14/15/14 18/21/14 9/12/14
f 13/20/15 15/19/15 19/22/15
f 17/6/16 16/17/16 39/23/16
f 18/21/17 22/24/17 12/18/17
f 15/19/18 22/24/18 23/25/18
f 54/26/19 17/6/19 39/23/19
f 18/21/20 21/27/20 25/28/20
f 22/24/21 25/28/21 27/29/21
f 23/25/22 27/29/22 28/30/22
f 20/31/23 26/32/23 21/27/23
f 19/22/24 29/33/24 24/34/24
f 24/34/25 29/33/25 34/35/25
f 25/28/26 26/32/26 30/36/26
f 28/30/27 27/29/27 31/37/27
f 31/37/28 32/38/28 28/30/28
f 65/39/29 45/40/29 20/31/29
f 28/30/30 32/38/30 33/41/30
f 28/30/31 33/41/31 29/33/31
f 39/23/32 34/35/32 42/42/32
f 27/29/33 30/36/33 31/37/33
f 45/40/34 40/43/34 26/32/34
f 32/38/35 38/44/35 33/41/35
f 40/43/36 46/45/36 35/46/36
f 37/47/37 44/48/37 38/44/37
f 46/45/38 43/49/38 36/50/38
f 39/23/39 42/42/39 54/51/39
f 42/42/40 47/52/40 53/53/40
f 40/43/41 45/40/41 55/54/41
f 44/48/42 47/52/42 41/55/42
f 44/48/43 50/56/43 51/57/43
f 46/45/44 48/58/44 43/49/44
f 43/49/45 48/58/45 49/59/45
f 37/47/46 50/56/46 44/48/46
f 66/60/47 59/61/47 45/40/47
f 48/58/48 55/54/48 56/62/48
f 49/59/49 56/62/49 57/63/49
f 49/59/50 58/64/50 50/56/50
f 58/64/51 64/65/51 52/66/51
f 59/61/52 60/67/52 55/54/52
f 55/54/53 60/67/53 56/62/53
f 56/62/54 60/67/54 61/68/54
f 57/63/55 61/68/55 62/69/55
f 57/63/56 62/69/56 58/64/56
f 58/64/57 62/69/57 63/70/57
f 77/71/58 68/72/58 60/67/58
f 63/70/59 71/73/59 64/65/59
f 64/65/60 71/73/60 75/74/60
f 61/68/61 68/72/61 69/75/61
f 66/60/62 77/71/62 59/61/62
f 66/60/63 65/76/63 76/77/63
f 70/78/64 74/79/64 71/73/64
f 68/72/65 82/80/65 73/81/65
f 67/82/66 75/74/66 92/83/66
f 72/84/67 81/85/67 70/78/67
f 77/71/68 82/80/68 68/72/68
f 72/86/69 80/87/69 81/88/69
f 72/86/70 73/89/70 79/90/70
f 72/86/71 79/90/71 80/87/71
f 82/91/72 78/92/72 73/89/72
f 80/87/73 79/90/73 84/93/73
f 81/88/74 87/94/74 74/95/74
f 76/96/75 93/97/75 77/98/75
f 81/88/76 84/93/76 87/94/76
f 78/92/77 88/99/77 83/100/77
f 79/90/78 78/92/78 86/101/78
f 92/102/79 98/5/79 67/103/79
f 54/104/80 67/103/80 98/5/80
f 85/105/81 90/106/81 91/107/81
f 84/93/82 86/101/82 89/108/82
f 87/94/83 90/106/83 85/105/83
f 89/108/84 94/109/84 87/94/84
f 88/99/85 95/110/85 83/100/85
f 86/101/86 83/100/86 96/111/86
f 91/107/87 98/5/87 92/102/87
f 89/108/88 96/111/88 94/109/88
f 76/96/89 6/14/89 93/97/89
f 94/109/90 3/10/90 90/106/90
f 93/97/91 95/110/91 88/99/91
f 83/100/92 95/110/92 96/111/92
f 91/107/93 3/10/93 4/13/93
f 76/96/94 65/112/94 11/16/94
f 95/110/95 6/14/95 5/11/95
f 2/3/96 7/2/96 8/7/96
f 97/8/97 8/7/97 10/9/97
f 3/10/98 10/9/98 4/13/98
f 7/2/99 1/1/99 9/12/99
f 8/7/100 15/19/100 13/20/100
f 10/9/101 8/7/101 13/20/101
f 4/13/102 16/17/102 17/6/102
f 7/2/103 12/18/103 15/19/103
f 9/12/104 18/21/104 12/18/104
f 11/16/105 20/31/105 14/15/105
f 13/20/106 19/22/106 16/17/106
f 18/21/107 14/15/107 21/27/107
f 15/19/108 12/18/108 22/24/108
f 39/23/109 16/17/109 24/34/109
f 15/19/110 23/25/110 19/22/110
f 14/15/111 20/31/111 21/27/111
f 16/17/112 19/22/112 24/34/112
f 22/24/113 18/21/113 25/28/113
f 11/16/114 65/39/114 20/31/114
f 23/25/115 22/24/115 27/29/115
f 19/22/116 23/25/116 28/30/116
f 19/22/117 28/30/117 29/33/117
f 25/28/118 21/27/118 26/32/118
f 24/34/119 34/35/119 39/23/119
f 27/29/120 25/28/120 30/36/120
f 26/32/121 20/31/121 45/40/121
f 29/33/122 33/41/122 34/35/122
f 26/32/123 35/46/123 30/36/123
f 30/36/124 35/46/124 36/50/124
f 31/37/125 30/36/125 36/50/125
f 26/32/126 40/43/126 35/46/126
f 33/41/127 38/44/127 41/55/127
f 34/35/128 33/41/128 41/55/128
f 34/35/129 41/55/129 42/42/129
f 32/38/130 31/37/130 36/50/130
f 35/46/131 46/45/131 36/50/131
f 32/38/132 36/50/132 37/47/132
f 32/38/133 37/47/133 38/44/133
f 65/39/134 66/60/134 45/40/134
f 38/44/135 44/48/135 41/55/135
f 42/42/136 41/55/136 47/52/136
f 37/47/137 36/50/137 43/49/137
f 54/51/138 42/42/138 53/53/138
f 40/43/139 55/54/139 46/45/139
f 44/48/140 51/57/140 47/52/140
f 53/53/141 47/52/141 52/66/141
f 37/47/142 43/49/142 49/59/142
f 37/47/143 49/59/143 50/56/143
f 45/40/144 59/61/144 55/54/144
f 52/66/145 47/52/145 51/57/145
f 48/58/146 46/45/146 55/54/146
f 51/57/147 50/56/147 58/64/147
f 51/57/148 58/64/148 52/66/148
f 49/59/149 48/58/149 56/62/149
f 49/59/150 57/63/150 58/64/150
f 53/53/151 64/65/151 67/82/151
f 54/51/152 53/53/152 67/82/152
f 53/53/153 52/66/153 64/65/153
f 58/64/154 63/70/154 64/65/154
f 57/63/155 56/62/155 61/68/155
f 59/61/156 77/71/156 60/67/156
f 61/68/157 60/67/157 68/72/157
f 64/65/158 75/74/158 67/82/158
f 62/69/159 61/68/159 69/75/159
f 62/69/160 69/75/160 70/78/160
f 63/70/161 62/69/161 70/78/161
f 63/70/162 70/78/162 71/73/162
f 69/75/163 72/84/163 70/78/163
f 66/60/164 76/77/164 77/71/164
f 75/74/165 71/73/165 74/79/165
f 69/75/166 68/72/166 73/81/166
f 72/84/167 69/75/167 73/81/167
f 70/78/168 81/85/168 74/79/168
f 75/113/169 74/95/169 85/105/169
f 75/113/170 85/105/170 92/102/170
f 79/90/171 73/89/171 78/92/171
f 74/95/172 87/94/172 85/105/172
f 81/88/173 80/87/173 84/93/173
f 77/98/174 93/97/174 82/91/174
f 78/92/175 82/91/175 88/99/175
f 84/93/176 79/90/176 86/101/176
f 85/105/177 91/107/177 92/102/177
f 86/101/178 78/92/178 83/100/178
f 84/93/179 89/108/179 87/94/179
f 82/91/180 93/97/180 88/99/180
f 87/94/181 94/109/181 90/106/181
f 89/108/182 86/101/182 96/111/182
f 91/107/183 90/106/183 3/10/183
f 94/109/184 97/8/184 3/10/184
f 93/97/185 6/14/185 95/110/185
f 96/111/186 95/110/186 1/1/186
f 91/107/187 4/13/187 98/5/187
f 94/109/188 96/111/188 2/3/188
f 94/109/189 2/3/189 97/8/189
f 2/3/190 96/111/190 1/1/190
f 6/14/191 76/96/191 11/16/191
f 1/1/192 95/110/192 5/11/192
